<?xml version="1.0" encoding="UTF-8"?>
<svg width="40px" height="40px" viewBox="0 0 40 40" fill="none" xmlns="http://www.w3.org/2000/svg">
    <path d="M27.75,6.432L12.25,6.432C5.417,6.432 3.333,8.516 3.333,15.349L3.333,24.649C3.333,31.482 5.417,33.566 12.25,33.566L27.75,33.566C34.583,33.566 36.667,31.482 36.667,24.649L36.667,15.349C36.667,8.516 34.583,6.432 27.75,6.432ZM27.483,21.866C27.483,25.616 25.733,27.366 21.983,27.366L18.267,27.366C14.517,27.366 12.767,25.616 12.767,21.866L12.767,18.149C12.767,14.399 14.517,12.649 18.267,12.649L21.983,12.649C25.733,12.649 27.483,14.399 27.483,18.149L27.483,21.866Z" fill="#8b6431"/>
</svg>
